<svg width="666" height="118" viewBox="0 0 666 118" fill="none" xmlns="http://www.w3.org/2000/svg">
<path d="M181.071 64.4435C181.071 81.6127 170.95 89.3256 158.465 89.3256C145.98 89.3256 135.859 81.6127 135.859 64.4435C135.859 57.1295 140.261 46.7574 145.262 37.5886C152.112 25.0299 158.465 14.0964 158.465 14.0964C158.465 14.0964 164.818 25.0299 171.668 37.5886C176.669 46.7574 181.071 57.1295 181.071 64.4435Z" fill="#0038C9"/>
<path d="M45.2113 64.4435C45.2113 81.6127 35.0904 89.3256 22.6056 89.3256C10.1209 89.3256 0 81.6127 0 64.4435C0 57.1295 4.40195 46.7574 9.40275 37.5886C16.2524 25.0299 22.6056 14.0964 22.6056 14.0964C22.6056 14.0964 28.9588 25.0299 35.8085 37.5886C40.8093 46.7574 45.2113 57.1295 45.2113 64.4435Z" fill="#6E95F9"/>
<path d="M135.784 64.4435C135.784 81.6127 125.664 89.3256 113.179 89.3256C100.694 89.3256 90.5732 81.6127 90.5732 64.4435C90.5732 57.1295 94.9752 46.7574 99.976 37.5886C106.826 25.0299 113.179 14.0964 113.179 14.0964C113.179 14.0964 119.532 25.0299 126.382 37.5886C131.383 46.7574 135.784 57.1295 135.784 64.4435Z" fill="#164CD6"/>
<path d="M90.2113 63.995C90.2113 81.1642 80.0904 88.8772 67.6056 88.8772C55.1209 88.8772 45 81.1642 45 63.995C45 56.681 49.402 46.3089 54.4028 37.1401C61.2524 24.5814 67.6056 13.6479 67.6056 13.6479C67.6056 13.6479 73.9588 24.5814 80.8085 37.1401C85.8093 46.3089 90.2113 56.681 90.2113 63.995Z" fill="#3D6BE1"/>
<path d="M633.159 117.76C628.38 117.76 623.644 117.035 618.951 115.584C614.343 114.133 610.375 111.701 607.047 108.288C603.719 104.875 601.969 100.437 601.799 94.9759H615.879C616.049 97.1946 616.903 99.1145 618.439 100.736C619.975 102.443 621.98 103.723 624.455 104.576C626.929 105.429 629.703 105.856 632.775 105.856C636.017 105.856 639.004 105.173 641.735 103.808C644.551 102.528 646.727 100.651 648.263 98.1759C649.884 95.7865 650.695 93.0132 650.695 89.8559V29.0559H665.031V89.3439C665.031 95.0612 663.665 100.053 660.935 104.32C658.204 108.587 654.407 111.872 649.543 114.176C644.764 116.565 639.303 117.76 633.159 117.76ZM628.551 91.0079C623.089 91.0079 618.055 89.5999 613.447 86.7839C608.839 83.9679 605.212 80.1279 602.567 75.2639C599.921 70.3999 598.599 65.1092 598.599 59.3919C598.599 53.6746 599.921 48.3839 602.567 43.5199C605.212 38.6559 608.839 34.8159 613.447 31.9999C618.055 29.1839 623.089 27.7759 628.551 27.7759C634.097 27.7759 638.876 29.0559 642.887 31.6159C646.983 34.1759 650.097 37.8452 652.231 42.6239C654.364 47.4025 655.431 52.9919 655.431 59.3919C655.431 65.7919 654.364 71.3812 652.231 76.1599C650.097 80.9385 646.983 84.6079 642.887 87.1679C638.876 89.7279 634.097 91.0079 628.551 91.0079ZM631.623 78.0799C635.207 78.0799 638.449 77.2692 641.351 75.6479C644.252 74.0265 646.513 71.8079 648.135 68.9919C649.841 66.0905 650.695 62.8905 650.695 59.3919C650.695 55.8932 649.841 52.7359 648.135 49.9199C646.513 47.1039 644.252 44.8852 641.351 43.2639C638.449 41.6425 635.207 40.8319 631.623 40.8319C628.124 40.8319 624.924 41.6852 622.023 43.3919C619.121 45.0132 616.817 47.2319 615.111 50.0479C613.489 52.8639 612.679 55.9785 612.679 59.3919C612.679 62.8052 613.489 65.9625 615.111 68.8639C616.817 71.6799 619.121 73.9412 622.023 75.6479C624.924 77.2692 628.124 78.0799 631.623 78.0799Z" fill="white"/>
<path d="M546.231 91.6479H532.023V29.0559H546.231V91.6479ZM576.823 57.7279C576.823 52.7785 575.415 48.8532 572.599 45.9519C569.869 42.9652 566.242 41.4719 561.719 41.4719C557.026 41.4719 553.271 42.9652 550.455 45.9519C547.639 48.8532 546.231 52.7785 546.231 57.7279H541.879C541.879 51.7545 542.818 46.5065 544.695 41.9839C546.658 37.3759 549.389 33.8772 552.887 31.4879C556.471 29.0132 560.567 27.7759 565.175 27.7759C570.466 27.7759 575.074 28.9279 578.999 31.2319C582.925 33.4505 585.911 36.6932 587.959 40.9599C590.093 45.2265 591.159 50.2185 591.159 55.9359V91.6479H576.823V57.7279Z" fill="white"/>
<path d="M520.083 91.6479H505.747V29.0559H520.083V91.6479ZM483.603 92.9279C478.142 92.9279 473.107 91.4772 468.499 88.5759C463.891 85.6745 460.265 81.7065 457.619 76.6719C454.974 71.6372 453.651 66.1759 453.651 60.2879C453.651 54.3999 454.974 48.9812 457.619 44.0319C460.265 38.9972 463.891 35.0292 468.499 32.1279C473.107 29.2265 478.142 27.7759 483.603 27.7759C489.15 27.7759 493.929 29.0985 497.939 31.7439C502.035 34.3892 505.15 38.1865 507.283 43.1359C509.417 47.9999 510.483 53.7172 510.483 60.2879C510.483 66.9439 509.417 72.7465 507.283 77.6959C505.15 82.5599 502.035 86.3145 497.939 88.9599C493.929 91.6052 489.15 92.9279 483.603 92.9279ZM486.675 79.3599C490.259 79.3599 493.502 78.5492 496.403 76.9279C499.305 75.2212 501.566 72.9172 503.187 70.0159C504.894 67.1145 505.747 63.8719 505.747 60.2879C505.747 56.7039 504.894 53.5039 503.187 50.6879C501.566 47.7865 499.305 45.5252 496.403 43.9039C493.502 42.1972 490.259 41.3439 486.675 41.3439C483.177 41.3439 479.977 42.1972 477.075 43.9039C474.174 45.6105 471.87 47.9145 470.163 50.8159C468.542 53.7172 467.731 56.8745 467.731 60.2879C467.731 63.7865 468.542 66.9865 470.163 69.8879C471.87 72.7892 474.174 75.0932 477.075 76.7999C479.977 78.5065 483.177 79.3599 486.675 79.3599Z" fill="white"/>
<path d="M431.078 2.04785H445.286V91.6479H431.078V2.04785Z" fill="white"/>
<path d="M375.126 91.6479H360.918V29.0559H375.126V91.6479ZM405.718 57.7279C405.718 52.7785 404.31 48.8532 401.494 45.9519C398.763 42.9652 395.137 41.4719 390.614 41.4719C385.921 41.4719 382.166 42.9652 379.35 45.9519C376.534 48.8532 375.126 52.7785 375.126 57.7279H370.774C370.774 51.7545 371.713 46.5065 373.59 41.9839C375.553 37.3759 378.283 33.8772 381.782 31.4879C385.366 29.0132 389.462 27.7759 394.07 27.7759C399.361 27.7759 403.969 28.9279 407.894 31.2319C411.819 33.4505 414.806 36.6932 416.854 40.9599C418.987 45.2265 420.054 50.2185 420.054 55.9359V91.6479H405.718V57.7279Z" fill="white"/>
<path d="M348.841 29.056V91.648H334.633V29.056H348.841ZM341.801 18.304C339.241 18.304 337.065 17.408 335.273 15.616C333.481 13.824 332.585 11.6907 332.585 9.216C332.585 6.74133 333.481 4.608 335.273 2.816C337.065 0.938667 339.241 0 341.801 0C344.361 0 346.537 0.938667 348.329 2.816C350.121 4.608 351.017 6.74133 351.017 9.216C351.017 11.6907 350.121 13.824 348.329 15.616C346.537 17.408 344.361 18.304 341.801 18.304Z" fill="white"/>
<path d="M322.693 91.6479H308.357V29.0559H322.693V91.6479ZM286.213 92.9279C280.751 92.9279 275.717 91.4772 271.109 88.5759C266.501 85.6745 262.874 81.7065 260.229 76.6719C257.583 71.6372 256.261 66.1759 256.261 60.2879C256.261 54.3999 257.583 48.9812 260.229 44.0319C262.874 38.9972 266.501 35.0292 271.109 32.1279C275.717 29.2265 280.751 27.7759 286.213 27.7759C291.759 27.7759 296.538 29.0985 300.549 31.7439C304.645 34.3892 307.759 38.1865 309.893 43.1359C312.026 47.9999 313.093 53.7172 313.093 60.2879C313.093 66.9439 312.026 72.7465 309.893 77.6959C307.759 82.5599 304.645 86.3145 300.549 88.9599C296.538 91.6052 291.759 92.9279 286.213 92.9279ZM289.285 79.3599C292.869 79.3599 296.111 78.5492 299.013 76.9279C301.914 75.2212 304.175 72.9172 305.797 70.0159C307.503 67.1145 308.357 63.8719 308.357 60.2879C308.357 56.7039 307.503 53.5039 305.797 50.6879C304.175 47.7865 301.914 45.5252 299.013 43.9039C296.111 42.1972 292.869 41.3439 289.285 41.3439C285.786 41.3439 282.586 42.1972 279.685 43.9039C276.783 45.6105 274.479 47.9145 272.773 50.8159C271.151 53.7172 270.341 56.8745 270.341 60.2879C270.341 63.7865 271.151 66.9865 272.773 69.8879C274.479 72.7892 276.783 75.0932 279.685 76.7999C282.586 78.5065 285.786 79.3599 289.285 79.3599Z" fill="white"/>
<path d="M219.438 29.0559H233.646V37.7599C235.438 34.6879 237.784 32.2559 240.686 30.4639C243.672 28.6719 246.958 27.7759 250.542 27.7759C252.333 27.7759 254.296 28.0319 256.43 28.5439V41.5999C253.955 41.0025 251.864 40.7039 250.158 40.7039C247 40.7039 244.184 41.3865 241.71 42.7519C239.235 44.1172 237.272 46.1225 235.822 48.7679C234.371 51.4132 233.646 54.5705 233.646 58.2399V91.6479H219.438V29.0559Z" fill="white"/>
</svg>
